<svg width="27" height="23" viewBox="0 0 27 23" fill="none" xmlns="http://www.w3.org/2000/svg">
<path d="M23.7968 6.07539C23.8073 6.31291 23.8073 6.53963 23.8073 6.77714C23.8177 13.9782 18.527 22.2912 8.85187 22.2912C5.99826 22.2912 3.19673 21.4383 0.790955 19.8405C1.20754 19.8945 1.62412 19.9161 2.04071 19.9161C4.40483 19.9161 6.70646 19.0956 8.57067 17.5733C6.32112 17.5301 4.34234 16.0079 3.65497 13.7838C4.44649 13.9458 5.25883 13.9134 6.02951 13.6867C3.58207 13.1901 1.822 10.9553 1.81159 8.35338C1.81159 8.33179 1.81159 8.3102 1.81159 8.2886C2.54061 8.70965 3.36337 8.94717 4.19653 8.96876C1.8949 7.37093 1.1763 4.18606 2.57185 1.69215C5.24841 5.10374 9.18514 7.1658 13.4135 7.39252C12.9865 5.50319 13.5697 3.5167 14.934 2.17798C17.0482 0.115913 20.3809 0.223875 22.3805 2.41549C23.5573 2.17798 24.6925 1.72454 25.7235 1.08757C25.3278 2.35072 24.505 3.41954 23.4115 4.09969C24.453 3.97014 25.4736 3.67864 26.4317 3.2468C25.7235 4.34801 24.8279 5.29807 23.7968 6.07539Z" fill="white"/>
</svg>
