<svg width="144" height="144" viewBox="0 0 144 144" fill="none" xmlns="http://www.w3.org/2000/svg">
<path d="M138.861 132.705H126.015C127.377 132.705 128.685 132.11 129.648 131.052C130.612 129.993 131.153 128.556 131.153 127.058V121.157C129.27 122.122 127.297 122.86 125.269 123.36C124.751 123.925 124.047 124.24 123.317 124.235H20.9078C20.2035 124.274 19.5165 123.993 19.0072 123.46C18.4968 122.925 18.2089 122.185 18.21 121.411V47.9984C18.2089 47.2245 18.4968 46.4846 19.0072 45.9501C19.5165 45.4169 20.2035 45.1358 20.9078 45.1749H123.446C124.127 45.1749 124.781 45.4724 125.263 46.0018C125.745 46.5312 126.015 47.2497 126.015 47.9984V57.5418C127.777 58.0485 129.495 58.7191 131.154 59.5473V42.3512C131.154 40.8537 130.612 39.4167 129.649 38.3579C128.685 37.2991 127.378 36.7041 126.015 36.7041H18.1065C16.7439 36.7041 15.4363 37.2991 14.4729 38.3579C13.5094 39.4167 12.968 40.8537 12.968 42.3512V127.058C12.968 128.556 13.5094 129.993 14.4729 131.052C15.4363 132.11 16.7439 132.705 18.1065 132.705H5.26026C3.42394 132.705 1.72761 133.782 0.81002 135.529C-0.107572 137.276 -0.107572 139.429 0.81002 141.176C1.72761 142.923 3.42399 144 5.26026 144H138.862C140.698 144 142.394 142.923 143.312 141.176C144.229 139.429 144.229 137.276 143.312 135.529C142.394 133.782 140.698 132.705 138.862 132.705L138.861 132.705ZM72.0601 135.529C70.2353 135.516 68.5539 134.442 67.6407 132.705H76.5048C75.5884 134.451 73.8943 135.527 72.0601 135.529Z" fill="#0F0F0F"/>
<path d="M30.952 64.9403H98.0609C103.667 59.4671 110.911 56.4532 118.41 56.4696H120.979V53.2503C120.909 51.8422 119.819 50.7582 118.538 50.8225H25.813C25.1753 50.7519 24.5399 50.9725 24.0547 51.4313C23.5684 51.8902 23.2759 52.5481 23.2438 53.2503V116.159C23.2759 116.861 23.5684 117.519 24.0547 117.978C24.5399 118.437 25.1753 118.658 25.813 118.587H101.402C99.2055 117.001 97.2098 115.102 95.4663 112.94H30.953C29.5342 112.94 28.3838 111.676 28.3838 110.116C28.3838 108.557 29.5342 107.293 30.953 107.293H91.7166C91.228 106.389 90.7922 105.43 90.3804 104.469H30.9528C29.534 104.469 28.3835 103.205 28.3835 101.646C28.3835 100.086 29.534 98.8221 30.9528 98.8221H88.557C87.9054 96.0553 87.5774 93.2089 87.5809 90.3514V87.5278H30.9545C29.5357 87.5278 28.3852 86.2635 28.3852 84.7043C28.3852 83.145 29.5357 81.8807 30.9545 81.8807H88.5587C88.7903 80.9202 89.0473 79.9887 89.3547 79.0571H30.9547C29.5359 79.0571 28.3855 77.7928 28.3855 76.2336C28.3855 74.6743 29.5359 73.41 30.9547 73.41H90.0476C90.5213 73.4024 90.9859 73.5499 91.3839 73.8335C91.9539 72.7079 92.5894 71.6226 93.2844 70.5866H30.9558C29.5369 70.5866 28.3865 69.3223 28.3865 67.763C28.3865 66.2038 29.5369 64.9395 30.9558 64.9395L30.952 64.9403ZM30.952 90.3525H72.0601C73.4789 90.3525 74.6293 91.6168 74.6293 93.176C74.6293 94.7353 73.4789 95.9996 72.0601 95.9996H30.952C29.5332 95.9996 28.3827 94.7353 28.3827 93.176C28.3827 91.6168 29.5332 90.3525 30.952 90.3525ZM30.952 56.4696H69.4908C70.9096 56.4696 72.0601 57.7339 72.0601 59.2932C72.0601 60.8525 70.9096 62.1168 69.4908 62.1168H30.952C29.5332 62.1168 28.3827 60.8525 28.3827 59.2932C28.3827 57.7339 29.5332 56.4696 30.952 56.4696Z" fill="#BDB0EC"/>
<path d="M3.20411 50.5706L7.18631 50.2883C7.43177 50.2315 7.68525 50.2315 7.93186 50.2883V42.3545C7.93875 39.8574 8.6992 37.4322 10.0939 35.4608C11.4887 33.4881 13.4387 32.08 15.6397 31.4562C16.9828 26.2237 20.3263 21.8899 24.803 19.5772C29.2797 17.2654 34.4502 17.2036 38.973 19.407C43.4943 21.6104 46.9238 25.8622 48.3714 31.0605H60.2417L62.8109 29.3096C63.8019 28.6239 64.2458 27.289 63.8903 26.0627L63.4016 24.453C63.0438 23.2416 61.9908 22.4424 60.8324 22.5054L56.8502 22.7878C55.8741 22.8546 54.9485 22.3075 54.461 21.376C53.7579 20.1243 52.9676 18.9356 52.0971 17.8177C51.4788 17.045 51.2907 15.9634 51.6096 14.9941L53.0995 10.9275V10.9288C53.5365 9.72875 53.1764 8.35731 52.2255 7.5973L50.9661 6.58133L50.9672 6.58007C50.0428 5.79854 48.7559 5.79854 47.8325 6.58007L44.7493 9.40364C43.9923 10.0906 42.9451 10.2444 42.0516 9.79945C40.8129 9.25491 39.542 8.80239 38.2494 8.4444C37.2951 8.22003 36.5381 7.42211 36.2961 6.38219L35.32 2.11909C35.0195 0.839675 33.9528 -0.0401807 32.7508 0.0014145H31.2092C30.0072 -0.0401839 28.9405 0.839675 28.64 2.11909L27.6639 6.38219C27.4219 7.42214 26.6649 8.22003 25.7106 8.4444C24.4179 8.80239 23.1471 9.25491 21.9084 9.79945C21.0504 10.1877 20.0675 10.0364 19.3391 9.40364L16.256 6.58007C15.3281 5.67501 13.9448 5.62712 12.9677 6.46788L11.7083 7.48385C10.7585 8.24396 10.3984 9.61666 10.8354 10.8153L12.3001 14.8819C12.6247 15.845 12.4469 16.9265 11.8367 17.7055C10.9673 18.8223 10.177 20.0122 9.47392 21.2625C8.98643 22.1953 8.05968 22.7424 7.0836 22.6743L3.1014 22.392C1.94295 22.3302 0.891166 23.1281 0.532146 24.3407L0.121535 26.0626C-0.23402 27.2891 0.209852 28.624 1.20086 29.3095L4.56614 31.6528C5.43901 32.2503 5.90353 33.3609 5.74867 34.4764V36.6508V38.8252C5.90352 39.942 5.43898 41.0526 4.56614 41.6488L1.20086 43.7665C0.209858 44.4522 -0.23402 45.7871 0.121535 47.0134L0.610164 48.6508C0.97949 49.8622 2.0439 50.65 3.20464 50.5706L3.20411 50.5706Z" fill="#8447E9"/>
<path d="M92.6143 90.3558C92.6143 97.8445 95.3212 105.026 100.14 110.321C104.958 115.617 111.493 118.591 118.307 118.591C125.121 118.591 131.655 115.617 136.474 110.321C141.292 105.026 143.999 97.8445 143.999 90.3558C143.999 82.867 141.292 75.6858 136.474 70.3904C131.655 65.095 125.121 62.1201 118.307 62.1201C111.493 62.1201 104.958 65.095 100.14 70.3904C95.3212 75.6859 92.6143 82.867 92.6143 90.3558ZM111.987 96.0029C112.728 96.8109 112.95 98.0311 112.55 99.0899C112.15 100.15 111.206 100.838 110.162 100.831C109.484 100.821 108.839 100.516 108.364 99.9836L101.196 91.7675C100.705 91.2394 100.428 90.5171 100.425 89.7633C100.428 89.0083 100.705 88.286 101.196 87.7579L108.467 79.7673C109.468 78.6719 111.088 78.6719 112.089 79.7673C112.576 80.298 112.85 81.019 112.85 81.7715C112.85 82.5253 112.576 83.2463 112.089 83.777L106.642 89.7633L111.987 96.0029ZM124.653 84.0304C124.167 83.5009 123.893 82.7787 123.893 82.0261C123.893 81.2736 124.167 80.5513 124.653 80.0219C125.655 78.9265 127.274 78.9265 128.276 80.0219L135.546 88.0125C136.028 88.5456 136.295 89.2667 136.292 90.0167C136.295 90.7679 136.028 91.489 135.546 92.0222L128.276 99.9849V99.9837C127.274 101.079 125.655 101.079 124.653 99.9837C123.657 98.8832 123.657 97.1046 124.653 96.0029L130.1 90.0166L124.653 84.0304ZM120.876 73.4144V107.297C120.876 108.856 119.726 110.121 118.307 110.121C116.888 110.121 115.738 108.856 115.738 107.297V73.4144C115.738 71.8551 116.888 70.5908 118.307 70.5908C119.726 70.5908 120.876 71.8551 120.876 73.4144Z" fill="#8447E9"/>
</svg>
