<svg width="151" height="40" viewBox="0 0 151 40" fill="none" xmlns="http://www.w3.org/2000/svg">
<path d="M27.7915 0.90918C25.3883 0.90918 23.0084 1.39128 20.788 2.32778C18.5676 3.26439 16.5503 4.63709 14.8508 6.36761C13.1514 8.09824 11.8034 10.1526 10.8836 12.4137C9.96399 14.6747 9.49057 17.0982 9.49057 19.5455C9.49057 21.9929 9.96399 24.4163 10.8836 26.6774C11.8034 28.9385 13.1514 30.9928 14.8508 32.7235C16.5503 34.454 19.1658 35.4271 21.3862 36.3637C23.6066 37.3002 25.3883 38.1819 27.7915 38.1819V29.7308C26.5899 29.7308 25.2415 29.1048 24.1314 28.6364C23.0212 28.1682 22.1708 26.9998 21.3212 26.1345C20.4715 25.2692 19.7975 24.242 19.3376 23.1115C18.8777 21.9809 18.6411 21.2238 18.6411 20.0001C18.6411 18.7764 18.8777 17.1101 19.3376 15.9796C19.7975 14.8491 20.4715 13.8218 21.3212 12.9566C22.1708 12.0913 23.1796 11.405 24.2898 10.9367C25.4 10.4684 26.5899 10.2274 27.7915 10.2274V0.90918Z" fill="#0D0E14"/>
<path d="M28.2491 25.4544C31.534 25.4544 34.1969 22.8089 34.1969 19.5453C34.1969 16.2818 31.534 13.6362 28.2491 13.6362C24.9641 13.6362 22.3013 16.2818 22.3013 19.5453C22.3013 22.8089 24.9641 25.4544 28.2491 25.4544Z" fill="#0D0E14"/>
<path d="M9.49057 20C9.49057 22.3876 9.97583 24.752 10.9185 26.9579C11.8612 29.1638 13.2429 31.1681 14.9848 32.8565C16.7267 34.5448 18.7946 35.8841 21.0705 36.7978C23.3464 37.7115 25.7857 38.1818 28.2491 38.1818C30.7124 38.1818 33.1518 37.7115 35.4277 36.7978C37.7036 35.8841 39.7714 34.5448 41.5134 32.8565C43.2552 31.1681 44.6369 29.1638 45.5797 26.9579C46.5223 24.752 47.0076 22.3876 47.0076 20H37.6283C37.6283 21.1939 37.3857 22.376 36.9143 23.479C36.443 24.5819 35.7522 25.5841 34.8812 26.4283C34.0103 27.2724 32.9763 27.942 31.8384 28.3989C30.7004 28.8558 29.4808 29.0909 28.2491 29.0909C27.0173 29.0909 25.7977 28.8558 24.6598 28.3989C23.5218 27.942 22.4879 27.2724 21.6169 26.4283C20.746 25.5841 20.0551 24.5819 19.5838 23.479C19.1124 22.376 18.8698 21.1939 18.8698 20H9.49057Z" fill="#0D0E14"/>
<path d="M34.1969 19.9999C34.1969 18.3121 33.5702 16.6936 32.4549 15.5001C31.3394 14.3067 29.8266 13.6362 28.2491 13.6362C26.6717 13.6362 25.1589 14.3067 24.0434 15.5001C22.9279 16.6936 22.3013 18.3121 22.3013 19.9999H28.2491H34.1969Z" fill="#0D0E14"/>
<path d="M57.0731 12.7271H54.328V25.4543H57.0731V12.7271Z" fill="#0D0E14"/>
<path d="M57.9882 20.9092C57.9882 23.7198 60.1561 25.4547 63.0209 25.4547C65.8857 25.4547 68.0537 23.7198 68.0537 20.9092C68.0537 18.0987 65.8857 16.3638 63.0209 16.3638C60.1561 16.3638 57.9882 18.0987 57.9882 20.9092ZM60.4271 20.9092C60.4271 19.2437 61.5111 18.2722 63.0209 18.2722C64.5308 18.2722 65.6147 19.2437 65.6147 20.9092C65.6147 22.5747 64.5308 23.5463 63.0209 23.5463C61.5111 23.5463 60.4271 22.5747 60.4271 20.9092Z" fill="#0D0E14"/>
<path d="M75.9456 16.6099V17.7876H75.7703C75.2444 17.0318 74.4029 16.3638 72.8954 16.3638C70.8269 16.3638 68.9688 18.1217 68.9688 20.8289C68.9688 23.536 70.8269 25.294 72.8954 25.294C74.4029 25.294 75.2444 24.6083 75.7352 23.9228H75.9105V24.7666C75.9105 26.4542 74.9288 27.2277 73.4914 27.2277C72.054 27.2277 71.3177 26.4542 71.0197 25.4521L69.0389 26.3135C69.4946 27.6319 70.8269 29.091 73.5265 29.091C76.2962 29.091 78.1192 27.6319 78.1192 24.8193V16.6099H75.9456ZM73.5615 23.3954C72.1942 23.3954 71.1775 22.411 71.1775 20.8289C71.1775 19.2467 72.1942 18.2623 73.5615 18.2623C74.9288 18.2623 75.9456 19.2467 75.9456 20.8289C75.9456 22.411 74.9288 23.3954 73.5615 23.3954Z" fill="#0D0E14"/>
<path d="M79.9493 20.9092C79.9493 23.7198 82.1173 25.4547 84.9822 25.4547C87.847 25.4547 90.0149 23.7198 90.0149 20.9092C90.0149 18.0987 87.847 16.3638 84.9822 16.3638C82.1173 16.3638 79.9493 18.0987 79.9493 20.9092ZM82.3883 20.9092C82.3883 19.2437 83.4723 18.2722 84.9822 18.2722C86.492 18.2722 87.576 19.2437 87.576 20.9092C87.576 22.5747 86.492 23.5463 84.9822 23.5463C83.4723 23.5463 82.3883 22.5747 82.3883 20.9092Z" fill="#0D0E14"/>
<path d="M91.845 13.4337C91.845 14.3917 92.4466 15.049 93.218 15.049C93.9885 15.049 94.5901 14.3917 94.5901 13.4337C94.5901 12.4758 93.9885 11.8184 93.218 11.8184C92.4466 11.8184 91.845 12.4758 91.845 13.4337ZM94.1888 16.1384H92.2463V25.4547H94.1888V16.1384Z" fill="#0D0E14"/>
<path d="M96.4202 29.091H98.6294V24.3586H98.8041C99.2949 25.0757 100.136 25.7569 101.644 25.7569C103.712 25.7569 105.571 23.9643 105.571 21.0603C105.571 18.1563 103.712 16.3638 101.644 16.3638C100.136 16.3638 99.2949 17.0449 98.7696 17.8158H98.5938V16.6147H96.4202V29.091ZM100.978 23.8209C99.611 23.8209 98.5938 22.817 98.5938 21.0603C98.5938 19.3036 99.611 18.2997 100.978 18.2997C102.345 18.2997 103.362 19.3036 103.362 21.0603C103.362 22.817 102.345 23.8209 100.978 23.8209Z" fill="#0D0E14"/>
<path d="M107.737 19.0182C107.737 20.7184 109.264 21.343 111.202 21.69L111.686 21.7767C112.841 21.9849 113.363 22.2452 113.363 22.8003C113.363 23.3555 112.841 23.7892 111.761 23.7892C110.68 23.7892 109.805 23.3728 109.562 22.1237L107.401 22.6441C107.718 24.4484 109.338 25.4547 111.761 25.4547C114.108 25.4547 115.636 24.4311 115.636 22.6268C115.636 20.8224 114.071 20.3368 111.985 19.9551L111.5 19.8683C110.531 19.6948 110.009 19.4519 110.009 18.8794C110.009 18.359 110.494 18.0293 111.388 18.0293C112.283 18.0293 112.916 18.3763 113.139 19.3131L115.264 18.7059C114.816 17.318 113.457 16.3638 111.388 16.3638C109.189 16.3638 107.737 17.318 107.737 19.0182Z" fill="#0D0E14"/>
<path d="M125.702 25.3104V16.3638H123.3V20.9814C123.3 22.6408 122.443 23.6149 120.974 23.6149C119.678 23.6149 118.954 22.9475 118.954 21.5946V16.3638H116.551V21.7029C116.551 23.9215 118.02 25.4547 120.231 25.4547C121.965 25.4547 122.767 24.7332 123.148 23.9756H123.338V25.3104H125.702Z" fill="#0D0E14"/>
<path d="M127.532 16.5081V25.4547H129.941V20.1156C129.941 18.889 130.553 18.2036 131.661 18.2036C132.617 18.2036 133.19 18.7086 133.19 19.6827V25.4547H135.599V20.1156C135.599 18.889 136.211 18.2036 137.319 18.2036C138.276 18.2036 138.848 18.7086 138.848 19.6827V25.4547H141.258V19.5744C141.258 17.4099 139.843 16.3638 138.084 16.3638C136.536 16.3638 135.829 17.0131 135.37 17.7707H135.178C134.738 16.923 133.955 16.3638 132.578 16.3638C131.202 16.3638 130.456 16.941 130.094 17.6264H129.902V16.5081H127.532Z" fill="#0D0E14"/>
</svg>
